<svg xmlns="http://www.w3.org/2000/svg" id="Group_8" width="147" height="147" viewBox="0 0 147 147">
    <defs>
        <clipPath id="clip-path">
            <path id="Rectangle_7" fill="none" d="M0 0H147V147H0z"/>
        </clipPath>
        <style>
            .cls-4{fill:#6c63ff}
        </style>
    </defs>
    <g id="Group_7" clip-path="url(#clip-path)">
        <path id="Path_1" fill="#fff" d="M98.541 60.8h90.928a27.785 27.785 0 0 1 27.786 27.785v90.927a27.788 27.788 0 0 1-27.783 27.788H98.541a27.785 27.785 0 0 1-27.786-27.785V88.589A27.785 27.785 0 0 1 98.541 60.8" transform="translate(-70.755 -60.801)"/>
        <path id="Path_2" d="M79.08 95.124l46.575-22.593a1.294 1.294 0 0 1 1.129 0l46.288 22.624a1.286 1.286 0 0 1 .6 1.721 1.3 1.3 0 0 1-.566.583l-2.987 1.559a.768.768 0 0 0-.415.692v22.5a1.29 1.29 0 0 1-1.291 1.291H165.2a1.289 1.289 0 0 1-1.288-1.291v-18.787a.772.772 0 0 0-.775-.77.729.729 0 0 0-.335.078l-36.2 17.534a1.282 1.282 0 0 1-1.132 0l-46.4-22.824a1.288 1.288 0 0 1 .006-2.317" class="cls-4" transform="translate(-57.164 -40.058)"/>
        <path id="Path_3" d="M119.838 118.541L99 108.142a.953.953 0 0 1-.429-1.277.937.937 0 0 1 .424-.427l25.454-12.76a.97.97 0 0 1 .842 0l20.672 10.173a.951.951 0 0 1 .435 1.272.932.932 0 0 1-.418.429l-25.287 12.984a.948.948 0 0 1-.853.006" class="cls-4" transform="translate(-21.179 -2.177)"/>
        <path id="Path_4" d="M114.674 121.691l-30.168-14.832a.973.973 0 0 1-.574-.892V87.492a.977.977 0 0 1 1.414-.884l30.164 14.771a.986.986 0 0 1 .549.884V120.8a.986.986 0 0 1-1.383.9" class="cls-4" transform="translate(-47.186 -14.833)"/>
    </g>
</svg>
