<svg xmlns="http://www.w3.org/2000/svg" width="373" height="87" viewBox="0 0 373 87">
    <defs>
        <clipPath id="clip-path">
            <path id="Rectangle_43" fill="none" d="M0 0H373V87H0z"/>
        </clipPath>
        <style>
            .cls-3{fill:#fff}
        </style>
    </defs>
    <g id="Group_62">
        <g id="Group_61" clip-path="url(#clip-path)">
            <path id="Path_30" d="M63.286 42.927c-2.946 14.66-15.394 23.415-30.027 23.415C14.063 66.342 0 52.636 0 33.315S14.443 0 33.639 0c11.5 0 21.189 4.949 27.176 14.943l-10.738 5.808a18.483 18.483 0 0 0-16.533-9.426c-12.353 0-20.811 10-20.811 21.99 0 12.088 8.458 21.8 20.811 21.8 8.266 0 15.488-4.856 16.533-13.516H35.159V30.934h29.077v1.523a55.025 55.025 0 0 1-.95 10.471" class="cls-3" transform="translate(0 .001)"/>
            <path id="Path_31" d="M65.307 52.418v-5.424a15.894 15.894 0 0 1-13.4 6.757c-12.353 0-20.241-10.278-20.241-22.083 0-11.517 7.888-21.8 19.956-21.8 5.7 0 9.976 2.284 13.683 6.566V11.2H76.9v41.218zM55.044 20.245a11.566 11.566 0 1 0 11.5 11.517 11.488 11.488 0 0 0-11.5-11.517" class="cls-3" transform="translate(39.967 12.498)"/>
            <path id="Path_32" d="M70.617 28.23v31.314h-11.5V28.23h-4.561v-9.9h4.563V4.243h11.5V18.33h8.076v9.9z" class="cls-3" transform="translate(68.853 5.372)"/>
            <path id="Path_33" d="M78.687 33.668c.19 6.376 3.232 11.042 10.073 11.042 4.468 0 7.413-1.81 9.788-5.522l10.643 1.712c-3.61 8.853-10.928 12.85-20.241 12.85-13.3 0-22.046-8.565-22.046-21.988 0-13.135 8.363-21.89 21.571-21.89 13.588 0 21 9.136 21 22.271v1.525zm9.978-15.612c-5.225 0-8.648 3.238-9.6 8.279h19.483c-1.14-5.137-4.465-8.279-9.883-8.279" class="cls-3" transform="translate(84.437 12.498)"/>
            <path id="Path_34" d="M140.092 53.169h-5.323L123.651 28.04l-10.926 25.129H107.4L86.309 11.1h12.923l10.833 23.8 11.213-24.944h4.94l11.213 25.319L148.547 11.1h12.83z" class="cls-3" transform="translate(108.927 12.604)"/>
            <path id="Path_35" d="M153.674 52.418v-5.424a15.894 15.894 0 0 1-13.4 6.757c-12.353 0-20.241-10.278-20.241-22.083 0-11.517 7.888-21.8 19.956-21.8 5.7 0 9.976 2.284 13.683 6.566V11.2h11.593v41.218zm-10.263-32.173a11.566 11.566 0 1 0 11.5 11.517 11.488 11.488 0 0 0-11.5-11.517" class="cls-3" transform="translate(151.491 12.498)"/>
            <path id="Path_36" d="M159.893 73.759h-13.018l15.108-28.271L142.5 10.46h13.4l12.353 23.415 11.783-23.415h13.115z" class="cls-3" transform="translate(179.849 13.241)"/>
        </g>
    </g>
</svg>
